# xmcd
# Track frame offsets:
# 182
# 5075
# 30145
# 35820
# 48852
# 62890
# 82630
# 86215
# 109170
# 113955
# 130280
# 135932
# 152545
# 167362
# 172497
# 186540
# 191847
#
# Disc length: 2822 seconds
# Revision: 0
# Processed by: cddbd v1.5.2PL0 Copyright (c) Steve Scherf et al.
# Submitted via: VisiTrax 2.10.3.257 - For more info visit www.synapsa.com
#
DISCID=e20b0411
DTITLE=Kenneth Weiss (Harpsichord), Jacqueline Nicolas (Soprano), Veronique M
DTITLE=ejean (Violin) - Cantatas
DYEAR=1993
DGENRE=
TTITLE0=Hippolyte Et Aricie: Recitatif 'Pres D'un Temple Sacre'
TTITLE1=Hippolyte Et Aricie: Air 'L'Amour Et L'Hymen...'
TTITLE2=Hippolyte Et Aricie: Recitatif 'O Spectacle Enchanteur!...'
TTITLE3=Hippolyte Et Aricie: Air 'Quel Bruit, Quels Eclats De Tonnerre!...'
TTITLE4=Hippolyte Et Aricie: Recitatif 'Souverain De La Mer...'
TTITLE5=Hippolyte Et Aricie: Air 'Qu'il Est Doux De Revoir Le Jour...'
TTITLE6=Le Charme De La Voix: Recitatif 'Florize Dont La Voix Prete A L'Amou
TTITLE6=r Des Armes...'
TTITLE7=Le Charme De La Voix: Air 'On M'accuse En Vain De Tendresse...'
TTITLE8=Le Charme De La Voix: Recitatif 'Le Fidele Berger...'
TTITLE9=Le Charme De La Voix: Air 'Quand La Belle Florize Chante...'
TTITLE10=Le Charme De La Voix: Recitatif 'Ce Langage Flatteur...'
TTITLE11=Le Charme De La Voix: Air 'Sous Ces Tendres Feuillages, Venez Petits O
TTITLE11=iseaux...'
TTITLE12=Le Portraint D'Uraine: Air 'Vous Abandonnez Votre Mere...'
TTITLE13=Le Portraint D'Uraine: Recitatif 'Ainsi La Reine D'Amathonte...'
TTITLE14=Le Portraint D'Uraine: Air 'Que Les Cieux, La Terre Et L'onde...'
TTITLE15=Le Portraint D'Uraine: Recitatif 'Les Amours A Ces Mots Eprouvent Sa P
TTITLE15=uissance...'
TTITLE16=Le Portraint D'Uraine: Air 'N'implorez Plus Le Dieu Qui Forge Le Tonne
TTITLE16=rre...'  \n\n Le Portraint D'Uraine: Air 'N'implorez Plus Le Dieu Qu
TTITLE16=i Forge Le Tonnerre...'  \n\n Le Portraint D'Uraine: Air 'N'implorez P
TTITLE16=lus Le Dieu Qui Forge Le Tonnerre...'  \n\nLe Portraint D'Uraine: Ai
TTITLE16=r 'N'implorez Plus Le Dieu Qui Forge Le Tonnerre...'  \n\n\n----------
TTITLE16=--------------------------------------------------------------------
TTITLE16=\nLe Portraint D'Uraine: Air 'N'implorez Plus Le Dieu Qui Forge Le To
TTITLE16=nnerre...'  \n\n\n----------------------------------------------------
TTITLE16=---------------------------\nLe Portraint D'Uraine: Air 'N'implorez P
TTITLE16=lus Le Dieu Qui Forge Le Tonnerre...'  \n\n\n-------------------------
TTITLE16=------------------------------------------------------\nLe Portrain
TTITLE16=t D'Uraine:  Air 'N'implorez Plus Le Dieu Qui Forge Le Tonnerre...
TTITLE16='  \n\nAir 'N'implorez Plus Le Dieu Qui Forge Le Tonnerre...'  \n\nL
TTITLE16=e Portraint D'Uraine: Air 'N'implorez Plus Le Dieu Qui Forge Le Tonner
TTITLE16=re...'  \n\n\n--------------------------------------------------------
TTITLE16=-----------------------\nLe Portraint D'Uraine: Air 'N'implorez Plu
TTITLE16=s Le Dieu Qui Forge Le Tonnerre...'  \n\n\n---------------------------
TTITLE16=----------------------------------------------------\nLe Portraint D'
TTITLE16=Uraine: Air 'N'implorez Plus Le Dieu...'
EXTD=
EXTT0=
EXTT1=
EXTT2=
EXTT3=
EXTT4=
EXTT5=
EXTT6=
EXTT7=
EXTT8=
EXTT9=
EXTT10=
EXTT11=
EXTT12=
EXTT13=
EXTT14=
EXTT15=
EXTT16=
PLAYORDER=
